<svg width="25" height="25" viewBox="0 0 25 25" fill="none" xmlns="http://www.w3.org/2000/svg">
<g clip-path="url(#clip0_24_24)">
<path d="M19.98 0.5H5.98001C3.21901 0.5 0.980011 2.739 0.980011 5.5V19.5C0.980011 22.261 3.21901 24.5 5.98001 24.5H19.98C22.742 24.5 24.98 22.261 24.98 19.5V5.5C24.98 2.739 22.742 0.5 19.98 0.5ZM8.98001 19.5H5.98001V8.5H8.98001V19.5ZM7.48001 7.232C6.51401 7.232 5.73001 6.442 5.73001 5.468C5.73001 4.494 6.51401 3.704 7.48001 3.704C8.44601 3.704 9.23001 4.494 9.23001 5.468C9.23001 6.442 8.44701 7.232 7.48001 7.232ZM20.98 19.5H17.98V13.896C17.98 10.528 13.98 10.783 13.98 13.896V19.5H10.98V8.5H13.98V10.265C15.376 7.679 20.98 7.488 20.98 12.741V19.5Z" fill="#1E1E1E"/>
</g>
<defs>
<clipPath id="clip0_24_24">
<rect width="24" height="24" fill="white" transform="translate(0.980011 0.5)"/>
</clipPath>
</defs>
</svg>
